<svg width="120" height="40" viewBox="0 0 120 40" fill="none" xmlns="http://www.w3.org/2000/svg">
  <path d="M19 10C14.0294 10 10 14.0294 10 19C10 23.9706 14.0294 28 19 28C23.9706 28 28 23.9706 28 19C28 14.0294 23.9706 10 19 10Z" fill="#60A5FA"/>
  <path d="M34 6C29.0294 6 25 10.0294 25 15C25 19.9706 29.0294 24 34 24C38.9706 24 43 19.9706 43 15C43 10.0294 38.9706 6 34 6Z" fill="#2563EB"/>
  <path d="M20.5 14C16.9101 14 14 16.9101 14 20.5C14 24.0899 16.9101 27 20.5 27C24.0899 27 27 24.0899 27 20.5C27 16.9101 24.0899 14 20.5 14Z" fill="#1E40AF"/>
  <path fill-rule="evenodd" clip-rule="evenodd" d="M30 19C30 15.134 26.866 12 23 12C19.134 12 16 15.134 16 19C16 22.866 19.134 26 23 26C26.866 26 30 22.866 30 19ZM23 14C25.7614 14 28 16.2386 28 19C28 21.7614 25.7614 24 23 24C20.2386 24 18 21.7614 18 19C18 16.2386 20.2386 14 23 14Z" fill="#10B981"/>
  <path d="M65.432 16.768H60.52V14.304H73.304V16.768H68.392V29H65.432V16.768Z" fill="white"/>
  <path d="M75.5295 14.304H78.4895V22.944C78.4895 23.744 78.6175 24.368 78.8735 24.816C79.1295 25.264 79.4815 25.584 79.9295 25.776C80.3935 25.968 80.9135 26.064 81.4895 26.064C82.0815 26.064 82.5935 25.968 83.0255 25.776C83.4575 25.584 83.7935 25.264 84.0335 24.816C84.2895 24.368 84.4175 23.744 84.4175 22.944V14.304H87.3775V22.944C87.3775 24.208 87.1295 25.28 86.6335 26.16C86.1535 27.024 85.4655 27.68 84.5695 28.128C83.6895 28.56 82.6575 28.776 81.4735 28.776C80.2895 28.776 79.2575 28.56 78.3775 28.128C77.4975 27.68 76.8175 27.024 76.3375 26.16C75.8575 25.28 75.6175 24.208 75.6175 22.944L75.5295 14.304Z" fill="white"/>
  <path d="M90.4663 14.304H93.4263V29H90.4663V14.304Z" fill="white"/>
  <path d="M96.2248 14.304H99.1208L105.329 23.952V14.304H108.273V29H105.377L99.1688 19.352V29H96.2248V14.304Z" fill="white"/>
  <path d="M111.354 14.304H114.314V29H111.354V14.304Z" fill="white"/>
  <path d="M117.076 21.632C117.076 20.4 117.348 19.304 117.892 18.344C118.452 17.384 119.22 16.632 120.196 16.088C121.172 15.544 122.284 15.272 123.532 15.272C124.78 15.272 125.892 15.544 126.868 16.088C127.844 16.632 128.604 17.384 129.148 18.344C129.708 19.304 129.988 20.4 129.988 21.632C129.988 22.88 129.708 23.984 129.148 24.944C128.604 25.904 127.844 26.656 126.868 27.2C125.892 27.744 124.78 28.016 123.532 28.016C122.284 28.016 121.172 27.744 120.196 27.2C119.22 26.656 118.452 25.904 117.892 24.944C117.348 23.984 117.076 22.88 117.076 21.632ZM120.036 21.648C120.036 22.384 120.18 23.024 120.468 23.568C120.772 24.112 121.172 24.536 121.668 24.84C122.18 25.128 122.78 25.272 123.468 25.272C124.172 25.272 124.772 25.128 125.268 24.84C125.78 24.536 126.18 24.112 126.468 23.568C126.756 23.024 126.9 22.384 126.9 21.648C126.9 20.912 126.756 20.272 126.468 19.728C126.18 19.184 125.78 18.768 125.268 18.48C124.772 18.176 124.172 18.024 123.468 18.024C122.78 18.024 122.18 18.176 121.668 18.48C121.172 18.768 120.772 19.184 120.468 19.728C120.18 20.272 120.036 20.912 120.036 21.648Z" fill="white"/>
</svg>
